<?xml version="1.0" encoding="utf-8"?>
<!-- Generator: Adobe Illustrator 15.0.0, SVG Export Plug-In . SVG Version: 6.00 Build 0)  -->
<!DOCTYPE svg PUBLIC "-//W3C//DTD SVG 1.1//EN" "http://www.w3.org/Graphics/SVG/1.1/DTD/svg11.dtd">
<svg version="1.1" id="Layer_2_1_" xmlns="http://www.w3.org/2000/svg" xmlns:xlink="http://www.w3.org/1999/xlink" x="0px" y="0px"
	 width="1920px" height="1080px" viewBox="0 0 1920 1080" enable-background="new 0 0 1920 1080" xml:space="preserve">
<path fill="#857964" d="M1076.083,386.556c-0.393-0.159-0.637-0.354-0.727-0.582c-0.207-0.492-0.066-0.561,0.426-0.207
	c2.857,2.09,6.088,3.047,9.695,2.875c0.145-0.007,0.273,0.006,0.395,0.041c0.908,0.271,0.861,0.457-0.137,0.561
	c-1.73,0.188-3.604,0.547-5.615,1.079c-0.301,0.081-0.619-0.058-0.758-0.331C1078.47,388.24,1077.376,387.095,1076.083,386.556z"/>
<path fill="#36211C" d="M1021.647,387.49l-4.463,3.166c-0.248,0.176-0.365,0.498-0.303,0.82c0.488,2.748-0.063,3.252-1.664,1.516
	c-0.232-0.256-0.537-0.686-0.908-1.287c-1.65-2.644-3.271-2.571-4.869,0.219c-0.168,0.296-0.344,0.473-0.529,0.528
	c-0.193,0.063-0.367,0.021-0.52-0.126c-0.195-0.199-0.229-0.528-0.084-0.817l1.121-2.243c0.16-0.323,0.115-0.671-0.102-0.777
	l-0.004-0.001l-2.076-1.079c-1.021-1.073-0.201-1.132,2.475-0.176c0.535,0.194,1.004,0.505,1.389,0.933
	c1.863,2.077,4.047,2.262,6.553,0.552C1018.87,387.885,1020.202,387.475,1021.647,387.49z"/>
<path fill="#94826A" d="M1074.442,451.119c-1.154-0.78-1.059-0.988,0.301-0.619l3.955,1.076c0.361,0.1,0.379,0.227,0.051,0.389
	C1077.575,452.537,1076.138,452.257,1074.442,451.119z"/>
<path fill="#7E6F5B" d="M913.123,451.831c2.207-0.417,4.062-0.434,4.131-0.046c0.072,0.388-1.658,1.038-3.867,1.452
	c-2.211,0.413-4.059,0.435-4.131,0.046C909.179,452.895,910.913,452.242,913.123,451.831z"/>
<path fill="#402F28" d="M1038.358,453.812c-1.377,5.542-4.783,7.686-10.225,6.428
	C1032.317,459.826,1035.724,457.688,1038.358,453.812z"/>
<path fill="#684F42" d="M927.124,458.699c-0.437-0.055-0.737-0.189-0.906-0.414c-0.107-0.164-0.02-0.393,0.2-0.512
	c0.058-0.028,0.113-0.049,0.176-0.06c4.897-0.816,9.789-1.704,14.666-2.656c1.172-0.234,1.467-0.081,0.885,0.466
	c-0.142,0.127-0.315,0.211-0.529,0.26c-3.101,0.706-6.156,1.554-9.164,2.543C930.904,458.838,929.127,458.963,927.124,458.699z"/>
<path fill="#7B6855" d="M963.516,471.041c-2.123,1.095-4.375,1.563-6.759,1.395c-0.422-0.028-0.428-0.095-0.02-0.196l6.548-1.62
	c0.174-0.046,0.342-0.015,0.439,0.081C963.834,470.803,963.766,470.917,963.516,471.041z"/>
<path fill="#9B876E" d="M986.811,472.714c-1.406-0.231-4.139,0.196-8.191,1.301c-0.215,0.053-0.438-0.045-0.5-0.222
	c-0.021-0.053-0.023-0.107-0.006-0.168c0.074-0.323,0.334-0.544,0.777-0.662c2.746-0.729,5.549-1.016,8.404-0.854
	c0.25,0.019,0.467,0.087,0.646,0.209C988.689,472.839,988.313,472.973,986.811,472.714z"/>
<path fill="#6C6553" d="M869.49,484.444c-1.461-0.537-1.565-0.908-0.311-1.102c0.221-0.031,0.476-0.029,0.768,0.012
	c3.24,0.432,5.773-0.824,7.607-3.759c0.524-0.852,1.317-1.521,2.379-2.015c0.333-0.151,0.39-0.074,0.176,0.229
	c-0.96,1.376-1.958,2.728-2.988,4.058c-1.123,1.453-2.181,2.361-3.176,2.72C872.558,485.08,871.075,485.032,869.49,484.444z"/>
<path fill="#77725F" d="M918.703,479.989c-7.223,0.238-7.321,0.047-0.289-0.568c0.139-0.016,0.277-0.053,0.414-0.11
	c5.128-2.309,5.236-2.118,0.324,0.561C919.011,479.944,918.862,479.983,918.703,479.989z"/>
<path fill="#402F28" d="M1014.671,498.26c-0.191-0.068-0.186-0.113,0.023-0.146c5.063-0.707,9.158,0.896,12.279,4.808
	c0.199,0.264,0.512,0.416,0.838,0.422c5.309,0.152,9.385,2.4,12.229,6.738c0.389,0.6,0.535,1.158,0.447,1.689
	c-0.18,1.02-0.863,1.318-2.045,0.9c-1.227-0.418-2.158-1.189-2.803-2.313c-2.26-3.902-5.277-5.254-9.064-4.058
	c-0.43,0.134-0.902-0.022-1.162-0.396C1022.993,502.431,1019.411,499.879,1014.671,498.26z"/>
<path fill="#3A2723" d="M1046.499,515.274c-2.596-2.4-4.354-4.211-5.285-5.432c-0.256-0.33-0.357-0.627-0.313-0.895
	c0.057-0.363,0.313-0.533,0.77-0.498c0.234,0.023,0.486,0.121,0.746,0.303c3.502,2.365,6.271,5.402,8.307,9.113
	c0.188,0.332,0.105,0.428-0.236,0.281C1049.392,517.688,1048.062,516.728,1046.499,515.274z"/>
</svg>
